<svg width="520" height="404" viewBox="0 0 520 404" fill="none" xmlns="http://www.w3.org/2000/svg">
<path opacity="0.1" d="M520 254.382C520 433.514 429.316 509 260.498 509H-102V383.111C-102.026 365.32 -94.9821 348.247 -82.4172 335.645C-69.8523 323.043 -52.7943 315.944 -34.9934 315.907H128.853V401.331L323.006 254.618L128.853 107.905V193.093H-34.9934C-43.7951 193.102 -52.5122 191.375 -60.6454 188.012C-68.7787 184.65 -76.1685 179.717 -82.3923 173.497C-88.616 167.277 -93.5514 159.891 -96.9159 151.763C-100.28 143.634 -102.008 134.922 -102 126.126V0H255.999C428.843 0 520 66.9674 520 254.382Z" fill="#76777A"/>
</svg>
