<svg width="27" height="28" viewBox="0 0 27 28" fill="none" xmlns="http://www.w3.org/2000/svg">
<path d="M15.9212 14.1489C15.8711 14.0976 15.8428 14.0279 15.8428 13.9552C15.8428 13.8826 15.8711 13.8129 15.9212 13.7616L25.808 3.6288C26.4331 2.98713 26.4324 1.94752 25.8063 1.30675C25.1803 0.665989 24.1661 0.666724 23.5409 1.30839L13.6553 11.4368C13.6052 11.4882 13.5373 11.5172 13.4664 11.5172C13.3955 11.5172 13.3275 11.4882 13.2775 11.4368L3.39182 1.30839C2.76668 0.667328 1.7529 0.667083 1.12747 1.30785C0.502039 1.94861 0.5018 2.98774 1.12693 3.6288L11.0115 13.7616C11.0617 13.8129 11.0899 13.8826 11.0899 13.9552C11.0899 14.0279 11.0617 14.0976 11.0115 14.1489L1.12693 24.2827C0.722543 24.6974 0.564712 25.3018 0.712895 25.8681C0.861077 26.4344 1.29276 26.8767 1.84534 27.0283C2.39791 27.1799 2.98742 27.0178 3.39182 26.6032L13.2775 16.4693C13.3275 16.4178 13.3955 16.3889 13.4664 16.3889C13.5373 16.3889 13.6052 16.4178 13.6553 16.4693L23.5409 26.6032C24.1661 27.2442 25.1799 27.2445 25.8053 26.6037C26.4307 25.9629 26.431 24.9238 25.8058 24.2827L15.9212 14.1489Z" fill="white"/>
</svg>
