<svg width="1440" height="104" viewBox="0 0 1440 104" fill="none" xmlns="http://www.w3.org/2000/svg">
<g opacity="0.15">
<path d="M35.7373 27.8388H0V3.40076H110.077V27.8388H74.3399V100.52H35.7373V27.8388Z" fill="#76777A"/>
<path d="M180.596 0C203.997 0 247.455 1.58175 247.455 51.9605C247.455 102.339 204.474 103.921 180.596 103.921C156.719 103.921 113.738 102.26 113.738 51.9605C113.738 1.66083 157.117 0 180.596 0ZM180.596 79.0875C196.515 79.0875 206.305 71.1787 206.305 51.565C206.305 31.9513 196.515 24.438 180.596 24.438C164.678 24.438 154.808 32.3468 154.808 51.9605C154.808 71.5741 164.678 79.4829 180.596 79.4829" fill="#76777A"/>
<path d="M286.933 27.8388H251.196V3.40076H361.273V27.8388H325.536V100.52H286.933V27.8388Z" fill="#76777A"/>
<path d="M393.747 3.40076H441.503L483.05 100.52H441.662L437.603 89.3688H397.328L393.19 100.52H352.12L393.747 3.40076ZM417.625 32.7422L406.084 65.6425H429.405L417.625 32.7422Z" fill="#76777A"/>
<path d="M487.667 3.40076H526.27V74.4213H586.124V100.52H487.667V3.40076Z" fill="#76777A"/>
<path d="M652.583 3.40076H740.136C760.193 3.40076 769.108 12.1004 769.108 27.6015C769.329 31.5616 768.327 35.4942 766.236 38.8725C764.145 42.2508 761.064 44.9134 757.408 46.5034C762.268 47.8616 766.541 50.7763 769.563 54.7947C772.585 58.8132 774.188 63.7108 774.122 68.727C774.122 87.7871 764.571 100.362 735.917 100.362H652.583V3.40076ZM690.39 39.5437H719.521C727.481 39.5437 729.152 36.9339 729.152 33.1377C729.152 29.3415 727.321 27.0479 719.521 27.0479H690.39V39.5437ZM690.39 76.873H723.342C731.301 76.873 733.37 73.5513 733.37 68.9643C733.37 64.3772 731.062 61.0555 723.342 61.0555H690.39V76.873Z" fill="#76777A"/>
<path d="M789.563 3.40084H870.827C878.712 2.83272 886.626 4.02157 893.989 6.88065C898.147 9.28239 901.576 12.7539 903.915 16.9294C906.254 21.1049 907.417 25.8299 907.281 30.6069C907.672 35.4555 906.397 40.2925 903.665 44.3286C900.933 48.3647 896.905 51.3617 892.238 52.8305C895.431 53.8467 898.22 55.8389 900.207 58.5231C902.194 61.2072 903.277 64.4462 903.301 67.778L904.973 89.0526C905.407 93.2318 907.068 97.1921 909.748 100.441H867.564C865.991 94.4556 865.294 88.276 865.495 82.0929C865.495 74.8168 862.629 70.5461 855.546 70.5461H828.166V100.441H789.563V3.40084ZM828.166 46.1081H855.546C863.505 46.1081 866.211 43.1027 866.211 36.9339C866.211 30.7651 861.435 27.8388 854.988 27.8388H828.166V46.1081Z" fill="#76777A"/>
<path d="M949.625 3.40076H996.983L1038.61 100.52H997.54L993.401 89.3688H953.127L949.068 100.52H907.998L949.625 3.40076ZM973.503 32.7422L961.962 65.6425H985.283L973.503 32.7422Z" fill="#76777A"/>
<path d="M1042.19 3.40076H1086.29L1125.45 57.2593H1125.84V3.40076H1162.77V100.52H1120.51L1079.44 46.108H1079.12V100.52H1042.19V3.40076Z" fill="#76777A"/>
<path d="M1179.73 3.40076H1255.1C1288.29 3.40076 1305.72 16.1338 1305.72 51.9604C1305.72 86.1262 1288.37 100.52 1255.9 100.52H1179.97L1179.73 3.40076ZM1218.33 76.003H1240.54C1258.21 76.003 1265.29 67.3034 1265.29 52.2768C1265.29 37.2502 1258.21 28.1551 1240.54 28.1551H1218.33V76.003Z" fill="#76777A"/>
<path d="M1367.97 3.32166H1420.74C1459.1 3.32166 1468.49 25.1498 1468.49 52.9095C1468.49 73.8677 1458.94 100.362 1425.67 100.362H1367.97V3.32166ZM1388.5 85.2563H1417.39C1432.2 85.2563 1447.96 80.511 1447.96 52.1186C1447.96 20.4836 1427.82 18.5855 1416.12 18.5855H1388.34L1388.5 85.2563Z" fill="#76777A"/>
</g>
</svg>
