<svg width="1440" height="81" viewBox="0 0 1440 81" fill="none" xmlns="http://www.w3.org/2000/svg">
<g opacity="0.2">
<path d="M-18.2566 21.6821H-46V2.64868H39.4547V21.6821H11.7113V78.2898H-18.2566V21.6821Z" fill="#76777A"/>
<path d="M94.1999 0C112.366 0 146.103 1.23194 146.103 40.4692C146.103 79.7065 112.737 80.9384 94.1999 80.9384C75.6631 80.9384 42.2969 79.6449 42.2969 40.4692C42.2969 1.29353 75.9721 0 94.1999 0ZM94.1999 61.597C106.558 61.597 114.158 55.4372 114.158 40.1612C114.158 24.8852 106.558 19.0334 94.1999 19.0334C81.8421 19.0334 74.1802 25.1932 74.1802 40.4692C74.1802 55.7452 81.8421 61.9049 94.1999 61.9049" fill="#76777A"/>
<path d="M176.751 21.6821H149.007V2.64868H234.462V21.6821H206.719V78.2898H176.751V21.6821Z" fill="#76777A"/>
<path d="M259.672 2.64868H296.745L328.999 78.2897H296.869L293.718 69.6045H262.452L259.239 78.2897H227.356L259.672 2.64868ZM278.209 25.5011L269.249 51.1255H287.353L278.209 25.5011Z" fill="#76777A"/>
<path d="M332.583 2.64868H362.551V57.9628H409.017V78.2898H332.583V2.64868Z" fill="#76777A"/>
<path d="M460.611 2.64868H528.579C544.15 2.64868 551.071 9.42433 551.071 21.4973C551.242 24.5816 550.464 27.6445 548.841 30.2757C547.218 32.9069 544.826 34.9806 541.987 36.219C545.761 37.2769 549.078 39.5469 551.424 42.6767C553.77 45.8065 555.014 49.6209 554.963 53.5278C554.963 68.3726 547.549 78.1666 525.304 78.1666H460.611V2.64868ZM489.961 30.7985H512.576C518.755 30.7985 520.052 28.7658 520.052 25.8091C520.052 22.8525 518.631 21.0662 512.576 21.0662H489.961V30.7985ZM489.961 59.8723H515.542C521.721 59.8723 523.327 57.2852 523.327 53.7126C523.327 50.1399 521.535 47.5529 515.542 47.5529H489.961V59.8723Z" fill="#76777A"/>
<path d="M566.95 2.64873H630.037C636.159 2.20626 642.302 3.13218 648.018 5.35897C651.246 7.22956 653.908 9.93329 655.724 13.1854C657.54 16.4375 658.443 20.1175 658.337 23.8381C658.64 27.6144 657.65 31.3817 655.529 34.5252C653.408 37.6687 650.281 40.0029 646.659 41.1468C649.138 41.9383 651.303 43.4899 652.845 45.5805C654.387 47.671 655.228 50.1937 655.247 52.7887L656.545 69.3583C656.882 72.6133 658.171 75.6977 660.252 78.2282H627.504C626.282 73.5664 625.741 68.7534 625.897 63.9377C625.897 58.2708 623.673 54.9445 618.174 54.9445H596.918V78.2282H566.95V2.64873ZM596.918 35.9111H618.174C624.353 35.9111 626.454 33.5704 626.454 28.7658C626.454 23.9613 622.746 21.6822 617.741 21.6822H596.918V35.9111Z" fill="#76777A"/>
<path d="M691.209 2.64868H727.974L760.289 78.2897H728.406L725.193 69.6045H693.928L690.776 78.2897H658.893L691.209 2.64868ZM709.746 25.5011L700.786 51.1255H718.89L709.746 25.5011Z" fill="#76777A"/>
<path d="M763.07 2.64868H797.301L827.701 44.5962H828.01V2.64868H856.681V78.2898H823.87L791.987 35.911H791.74V78.2898H763.07V2.64868Z" fill="#76777A"/>
<path d="M869.842 2.64868H928.356C954.122 2.64868 967.654 12.5658 967.654 40.4692C967.654 67.0791 954.184 78.2897 928.974 78.2897H870.027L869.842 2.64868ZM899.81 59.1947H917.049C930.766 59.1947 936.265 52.419 936.265 40.7156C936.265 29.0122 930.766 21.9285 917.049 21.9285H899.81V59.1947Z" fill="#76777A"/>
<path d="M1015.97 2.58704H1056.94C1086.72 2.58704 1094.01 19.5878 1094.01 41.2084C1094.01 57.5316 1086.6 78.1665 1060.77 78.1665H1015.97V2.58704ZM1031.92 66.4015H1054.34C1065.84 66.4015 1078.07 62.7057 1078.07 40.5924C1078.07 15.9536 1062.44 14.4753 1053.36 14.4753H1031.79L1031.92 66.4015Z" fill="#76777A"/>
<path d="M1106.56 2.64868H1172.49V14.5369H1122.5V33.5704H1170.45V45.4586H1122.5V66.4631H1173.29V78.2898H1106.56V2.64868Z" fill="#76777A"/>
<path d="M1185.34 2.64868H1201.28V65.8472H1247.44V78.2898H1185.34V2.64868Z" fill="#76777A"/>
<path d="M1272.21 2.64868H1256.27V78.3513H1272.21V2.64868Z" fill="#76777A"/>
<path d="M1278.21 2.64868H1296.13L1320.9 63.2601L1345.13 2.64868H1362.3L1328.94 78.2898H1312.07L1278.21 2.64868Z" fill="#76777A"/>
<path d="M1368.42 2.64868H1434.29V14.5369H1384.36V33.5704H1432.31V45.4586H1384.36V66.4631H1435.15V78.2898H1368.42V2.64868Z" fill="#76777A"/>
</g>
</svg>
