<svg width="12" height="12" viewBox="0 0 12 12" fill="none" xmlns="http://www.w3.org/2000/svg">
<path d="M11.3652 11.0442V11.0437H11.3679V7.00005C11.3679 5.02188 10.9421 3.49805 8.62946 3.49805C7.51771 3.49805 6.77165 4.10813 6.46706 4.68651H6.43491V3.68273H4.24219V11.0437H6.52541V7.39881C6.52541 6.43913 6.70733 5.51114 7.8958 5.51114C9.06681 5.51114 9.08427 6.60635 9.08427 7.46037V11.0442H11.3652Z" fill="white"/>
<path d="M0.524902 3.68359H2.81088V11.0446H0.524902V3.68359Z" fill="white"/>
<path d="M1.66676 0.0185547C0.935858 0.0185547 0.342773 0.61164 0.342773 1.34254C0.342773 2.07345 0.935858 2.67894 1.66676 2.67894C2.39767 2.67894 2.99075 2.07345 2.99075 1.34254C2.99029 0.61164 2.39721 0.0185547 1.66676 0.0185547V0.0185547Z" fill="white"/>
</svg>
