<svg width="14" height="13" viewBox="0 0 14 13" fill="none" xmlns="http://www.w3.org/2000/svg">
<path d="M13.1145 3.96681C13.0845 3.28714 12.9746 2.81988 12.8172 2.41499C12.6547 1.98521 12.4049 1.60043 12.0775 1.28056C11.7576 0.955707 11.3703 0.703285 10.9455 0.543398C10.5382 0.385952 10.0734 0.276042 9.39375 0.246075C8.70901 0.213571 8.49163 0.206055 6.75494 0.206055C5.01824 0.206055 4.80086 0.213571 4.11866 0.243537C3.439 0.273504 2.97173 0.383511 2.56694 0.54086C2.13706 0.703285 1.75228 0.953169 1.43241 1.28056C1.10756 1.60043 0.855238 1.98775 0.695253 2.41255C0.537807 2.81988 0.427897 3.28461 0.397931 3.96427C0.365426 4.64901 0.35791 4.86639 0.35791 6.60309C0.35791 8.33978 0.365426 8.55716 0.395393 9.23936C0.425359 9.91903 0.535367 10.3863 0.692813 10.7912C0.855238 11.221 1.10756 11.6057 1.43241 11.9256C1.75228 12.2505 2.1396 12.5029 2.5644 12.6628C2.97173 12.8202 3.43646 12.9301 4.11622 12.9601C4.79833 12.9902 5.0158 12.9976 6.7525 12.9976C8.48919 12.9976 8.70657 12.9902 9.38877 12.9601C10.0684 12.9301 10.5357 12.8202 10.9405 12.6628C11.8001 12.3304 12.4798 11.6507 12.8122 10.7912C12.9695 10.3839 13.0795 9.91903 13.1095 9.23936C13.1395 8.55716 13.147 8.33978 13.147 6.60309C13.147 4.86639 13.1444 4.64901 13.1145 3.96681ZM11.9626 9.18939C11.935 9.8141 11.8301 10.1514 11.7427 10.3763C11.5277 10.9336 11.0854 11.3759 10.5282 11.5908C10.3033 11.6783 9.9635 11.7832 9.34123 11.8106C8.66655 11.8407 8.4642 11.8481 6.75747 11.8481C5.05075 11.8481 4.84586 11.8407 4.17362 11.8106C3.54891 11.7832 3.21156 11.6783 2.98667 11.5908C2.70936 11.4883 2.45693 11.3259 2.25205 11.1135C2.03965 10.9061 1.87722 10.6562 1.77473 10.3789C1.68727 10.154 1.58234 9.8141 1.55491 9.19192C1.52485 8.51724 1.51743 8.31479 1.51743 6.60806C1.51743 4.90134 1.52485 4.69645 1.55491 4.0243C1.58234 3.39959 1.68727 3.06225 1.77473 2.83735C1.87722 2.55994 2.03965 2.30762 2.25459 2.10264C2.46191 1.89023 2.7118 1.72781 2.98921 1.62542C3.2141 1.53796 3.55398 1.43302 4.17615 1.4055C4.85084 1.37553 5.05329 1.36802 6.75991 1.36802C8.46918 1.36802 8.67153 1.37553 9.34377 1.4055C9.96848 1.43302 10.3058 1.53796 10.5307 1.62542C10.808 1.72781 11.0605 1.89023 11.2653 2.10264C11.4777 2.31006 11.6402 2.55994 11.7427 2.83735C11.8301 3.06225 11.935 3.40203 11.9626 4.0243C11.9925 4.69899 12.0001 4.90134 12.0001 6.60806C12.0001 8.31479 11.9925 8.5147 11.9626 9.18939Z" fill="white"/>
<path d="M6.75521 3.31689C4.94111 3.31689 3.46924 4.78867 3.46924 6.60287C3.46924 8.41707 4.94111 9.88884 6.75521 9.88884C8.56941 9.88884 10.0412 8.41707 10.0412 6.60287C10.0412 4.78867 8.56941 3.31689 6.75521 3.31689ZM6.75521 8.7344C5.57832 8.7344 4.62368 7.77986 4.62368 6.60287C4.62368 5.42588 5.57832 4.47134 6.75521 4.47134C7.9322 4.47134 8.88674 5.42588 8.88674 6.60287C8.88674 7.77986 7.9322 8.7344 6.75521 8.7344Z" fill="white"/>
<path d="M10.9382 3.18705C10.9382 3.61068 10.5947 3.95417 10.1709 3.95417C9.7473 3.95417 9.40381 3.61068 9.40381 3.18705C9.40381 2.76332 9.7473 2.41992 10.1709 2.41992C10.5947 2.41992 10.9382 2.76332 10.9382 3.18705Z" fill="white"/>
</svg>
