<svg width="110" height="49" viewBox="0 0 110 49" fill="none" xmlns="http://www.w3.org/2000/svg">
<g clip-path="url(#clip0_1045_18)">
<path d="M6.57917 0.159424C4.83427 0.159424 3.16083 0.852583 1.927 2.08642C0.693164 3.32025 0 4.99368 0 6.73859V42.2729C0 44.0178 0.693164 45.6912 1.927 46.925C3.16083 48.1589 4.83427 48.852 6.57917 48.852H103.41C105.152 48.846 106.82 48.1506 108.051 46.9177C109.282 45.6849 109.974 44.0149 109.977 42.2729V6.73859C109.974 4.9946 109.28 3.32291 108.047 2.08972C106.814 0.856539 105.142 0.162418 103.398 0.159424H6.57917ZM3.32922 42.2729V6.73859C3.32922 6.31233 3.41336 5.89027 3.57682 5.4966C3.74029 5.10293 3.97986 4.7454 4.28179 4.44452C4.58373 4.14364 4.94208 3.90532 5.33632 3.74323C5.73056 3.58114 6.15292 3.49847 6.57917 3.49996H103.41C104.269 3.49996 105.094 3.84081 105.704 4.44784C106.313 5.05488 106.656 5.87861 106.659 6.73859V42.2729C106.656 43.1328 106.313 43.9566 105.704 44.5636C105.094 45.1707 104.269 45.5115 103.41 45.5115H6.57917C6.15292 45.513 5.73056 45.4303 5.33632 45.2682C4.94208 45.1061 4.58373 44.8678 4.28179 44.5669C3.97986 44.266 3.74029 43.9085 3.57682 43.5149C3.41336 43.1212 3.32922 42.6991 3.32922 42.2729Z" fill="white"/>
<path d="M88.5299 12.2986H71.4082V18.3342C71.4082 18.755 71.4911 19.1718 71.6521 19.5606C71.8132 19.9494 72.0492 20.3027 72.3468 20.6002C72.6444 20.8978 72.9977 21.1339 73.3865 21.2949C73.7753 21.456 74.192 21.5389 74.6129 21.5389H82.449V17.4623L91.7345 24.4831L82.449 31.5039V27.4159H74.6129C73.7619 27.4189 72.9468 27.7591 72.3461 28.3619C71.7455 28.9647 71.4082 29.7809 71.4082 30.6319V36.6562H88.745C96.8189 36.6562 101.201 33.0326 101.201 24.4717C101.201 15.5032 96.8416 12.2986 88.5752 12.2986" fill="white"/>
<path d="M65.3955 23.2602V23.1922C66.3073 22.7935 67.075 22.125 67.5954 21.2767C68.1157 20.4284 68.3636 19.441 68.3057 18.4475C68.3057 14.5634 66.0409 12.3779 61.1037 12.3779H8.44775V18.5155H19.1488V36.7016H28.7741V18.4815H55.8834C57.8311 18.4815 58.2614 18.9458 58.2614 19.8404C58.2614 20.7349 57.8311 21.4257 55.8834 21.4257H39.192V36.7016H60.0393C67.1733 36.7016 69.5626 33.5649 69.5626 28.7749C69.5631 27.5273 69.1564 26.3137 68.4042 25.3184C67.6521 24.3231 66.5957 23.6004 65.3955 23.2602ZM56.8346 30.8019H48.6135V26.9517H56.8346C58.7484 26.9517 59.3259 27.801 59.3259 28.8655C59.3259 29.9299 58.7484 30.7679 56.8346 30.7679" fill="white"/>
</g>
<defs>
<clipPath id="clip0_1045_18">
<rect width="110" height="48.6813" fill="white" transform="translate(0 0.159424)"/>
</clipPath>
</defs>
</svg>
