<svg width="22" height="28" viewBox="0 0 22 28" fill="none" xmlns="http://www.w3.org/2000/svg">
<path d="M11 16C10.0111 16 9.04441 15.7068 8.22216 15.1573C7.39991 14.6079 6.75905 13.827 6.38061 12.9134C6.00218 11.9998 5.90316 10.9945 6.09609 10.0245C6.28901 9.05464 6.76522 8.16373 7.46448 7.46447C8.16374 6.7652 9.05466 6.289 10.0246 6.09607C10.9945 5.90315 11.9998 6.00216 12.9134 6.3806C13.8271 6.75904 14.608 7.3999 15.1574 8.22215C15.7068 9.04439 16 10.0111 16 11C15.9984 12.3256 15.4711 13.5964 14.5338 14.5338C13.5965 15.4711 12.3256 15.9984 11 16ZM11 8C10.4067 8 9.82665 8.17595 9.3333 8.50559C8.83995 8.83524 8.45544 9.30377 8.22837 9.85195C8.00131 10.4001 7.9419 11.0033 8.05766 11.5853C8.17341 12.1672 8.45913 12.7018 8.87869 13.1213C9.29825 13.5409 9.8328 13.8266 10.4147 13.9424C10.9967 14.0581 11.5999 13.9987 12.1481 13.7716C12.6962 13.5446 13.1648 13.1601 13.4944 12.6667C13.8241 12.1734 14 11.5933 14 11C13.9992 10.2046 13.6829 9.44199 13.1205 8.87956C12.558 8.31712 11.7954 8.00079 11 8Z" fill="#00CEFF"/>
<path d="M11 28L2.56401 18.051C2.44679 17.9016 2.33079 17.7513 2.21601 17.6C0.774992 15.7018 -0.00348119 13.3832 1.17029e-05 11C1.17029e-05 8.08262 1.15894 5.28473 3.22184 3.22183C5.28474 1.15893 8.08263 0 11 0C13.9174 0 16.7153 1.15893 18.7782 3.22183C20.8411 5.28473 22 8.08262 22 11C22.0035 13.3821 21.2254 15.6996 19.785 17.597L19.784 17.6C19.784 17.6 19.484 17.994 19.439 18.047L11 28ZM3.81201 16.395C3.81401 16.395 4.04601 16.703 4.09901 16.769L11 24.908L17.91 16.758C17.954 16.703 18.188 16.393 18.189 16.392C19.3662 14.8411 20.0023 12.947 20 11C20 8.61305 19.0518 6.32387 17.364 4.63604C15.6761 2.94821 13.387 2 11 2C8.61306 2 6.32388 2.94821 4.63605 4.63604C2.94822 6.32387 2.00001 8.61305 2.00001 11C1.99791 12.9482 2.63379 14.8434 3.81201 16.395Z" fill="#00CEFF"/>
</svg>
