<svg width="22" height="22" viewBox="0 0 22 22" fill="none" xmlns="http://www.w3.org/2000/svg">
<path d="M18.6952 21.5625H18.5571C2.59149 20.6444 0.324614 7.17313 0.00773892 3.06188C-0.0177937 2.74222 0.0199984 2.42067 0.11895 2.11565C0.217901 1.81062 0.376067 1.52812 0.584384 1.28433C0.792702 1.04054 1.04708 0.840246 1.33293 0.694932C1.61879 0.549618 1.93051 0.462136 2.25024 0.437501H6.72711C7.05257 0.437186 7.37062 0.534602 7.64007 0.717132C7.90951 0.899662 8.11795 1.15889 8.23836 1.46125L9.47336 4.5C9.59227 4.79538 9.62178 5.11919 9.55823 5.4312C9.49467 5.74321 9.34085 6.02967 9.11586 6.255L7.38524 8.00188C7.65557 9.53811 8.39126 10.9542 9.49278 12.0587C10.5943 13.1631 12.0085 13.9025 13.544 14.1769L15.3071 12.43C15.5358 12.2075 15.825 12.0573 16.1385 11.998C16.4521 11.9388 16.7761 11.9732 17.0702 12.0969L20.1334 13.3238C20.4312 13.448 20.6852 13.658 20.8632 13.9272C21.0412 14.1963 21.135 14.5123 21.1327 14.835V19.125C21.1327 19.7715 20.8759 20.3915 20.4188 20.8486C19.9617 21.3057 19.3417 21.5625 18.6952 21.5625ZM2.44524 2.0625C2.22975 2.0625 2.02309 2.1481 1.87071 2.30048C1.71834 2.45285 1.63274 2.65951 1.63274 2.875V2.94C2.00649 7.75 4.40336 19.125 18.6465 19.9375C18.7532 19.9441 18.8602 19.9296 18.9613 19.8947C19.0624 19.8599 19.1557 19.8054 19.2357 19.7344C19.3157 19.6635 19.3809 19.5774 19.4276 19.4812C19.4743 19.385 19.5015 19.2805 19.5077 19.1737V14.835L16.4446 13.6081L14.1127 15.9237L13.7227 15.875C6.65399 14.9894 5.69524 7.92063 5.69524 7.8475L5.64649 7.4575L7.95399 5.12563L6.73524 2.0625H2.44524Z" fill="#00CEFF"/>
</svg>
