<svg width="518" height="424" viewBox="0 0 518 424" fill="none" xmlns="http://www.w3.org/2000/svg">
<path opacity="0.1" d="M518 211.901C518 361.119 442.479 424 301.887 424H5.87012e-05V319.133C-0.0214059 304.314 5.84448 290.092 16.3085 279.594C26.7726 269.097 40.9784 263.183 55.8029 263.152H192.254V334.311L353.944 212.099L192.254 89.8856V160.848H55.8029C48.4729 160.855 41.2133 159.416 34.44 156.615C27.6666 153.814 21.5124 149.706 16.3293 144.524C11.1462 139.343 7.03597 133.19 4.23401 126.419C1.43204 119.648 -0.00668489 112.391 5.87012e-05 105.063V0H298.141C442.084 0 518 55.7843 518 211.901Z" fill="#76777A"/>
</svg>
