<svg width="246" height="159" viewBox="0 0 246 159" fill="none" xmlns="http://www.w3.org/2000/svg">
<path opacity="0.2" d="M197.252 0L246 25.4808C231.105 41.7885 219.595 61.4936 211.47 84.5961C203.346 107.699 201.653 130.122 206.392 151.865L130.224 159C123.453 125.026 127.177 94.109 141.395 66.25C155.613 38.391 174.232 16.3077 197.252 0ZM70.3044 0L119.052 25.4808C104.157 41.7885 92.6472 61.4936 84.5226 84.5961C76.3979 107.699 74.7053 130.122 79.4447 151.865L3.27607 159C-3.49447 125.026 0.22932 94.109 14.4475 66.25C28.6656 38.391 47.2846 16.3077 70.3044 0Z" fill="#76777A"/>
</svg>
