<svg width="1301" height="64" viewBox="0 0 1301 64" fill="none" xmlns="http://www.w3.org/2000/svg">
<g opacity="0.2">
<path d="M21.8488 17.1316H0V2.09277H67.2981V17.1316H45.4494V61.8586H21.8488V17.1316Z" fill="#76777A"/>
<path d="M110.412 0C124.718 0 151.287 0.973383 151.287 31.9757C151.287 62.9779 125.01 63.9513 110.412 63.9513C95.8136 63.9513 69.5366 62.9293 69.5366 31.9757C69.5366 1.02205 96.0569 0 110.412 0ZM110.412 48.6692C120.144 48.6692 126.129 43.8023 126.129 31.7323C126.129 19.6623 120.144 15.0388 110.412 15.0388C100.68 15.0388 94.6457 19.9057 94.6457 31.9757C94.6457 44.0456 100.68 48.9125 110.412 48.9125" fill="#76777A"/>
<path d="M175.423 17.1316H153.574V2.09277H220.872V17.1316H199.024V61.8586H175.423V17.1316Z" fill="#76777A"/>
<path d="M240.726 2.09277H269.923L295.324 61.8585H270.02L267.538 54.9962H242.916L240.385 61.8585H215.276L240.726 2.09277ZM255.324 20.149L248.269 40.3954H262.526L255.324 20.149Z" fill="#76777A"/>
<path d="M298.146 2.09277H321.747V45.7977H358.34V61.8586H298.146V2.09277Z" fill="#76777A"/>
<path d="M398.972 2.09277H452.499C464.761 2.09277 470.211 7.44637 470.211 16.9855C470.347 19.4225 469.734 21.8426 468.455 23.9215C467.177 26.0005 465.294 27.639 463.058 28.6175C466.03 29.4533 468.642 31.2469 470.49 33.7198C472.337 36.1927 473.317 39.2066 473.277 42.2935C473.277 54.0228 467.438 61.7612 449.92 61.7612H398.972V2.09277ZM422.086 24.3346H439.896C444.762 24.3346 445.784 22.7285 445.784 20.3924C445.784 18.0563 444.664 16.6449 439.896 16.6449H422.086V24.3346ZM422.086 47.3065H442.231C447.097 47.3065 448.363 45.2624 448.363 42.4395C448.363 39.6167 446.951 37.5726 442.231 37.5726H422.086V47.3065Z" fill="#76777A"/>
<path d="M482.717 2.09282H532.4C537.22 1.74321 542.058 2.47481 546.56 4.23424C549.102 5.71224 551.198 7.84853 552.629 10.4181C554.059 12.9876 554.77 15.8953 554.686 18.835C554.925 21.8188 554.146 24.7954 552.475 27.2792C550.805 29.7629 548.343 31.6072 545.489 32.5111C547.442 33.1364 549.147 34.3624 550.362 36.0142C551.576 37.666 552.238 39.6592 552.253 41.7096L553.275 54.8016C553.541 57.3734 554.556 59.8105 556.195 61.8099H530.405C529.443 58.1265 529.016 54.3237 529.139 50.5187C529.139 46.0411 527.388 43.413 523.057 43.413H506.317V61.8099H482.717V2.09282ZM506.317 28.3742H523.057C527.923 28.3742 529.577 26.5248 529.577 22.7286C529.577 18.9324 526.658 17.1316 522.716 17.1316H506.317V28.3742Z" fill="#76777A"/>
<path d="M580.574 2.09277H609.528L634.977 61.8585H609.868L607.338 54.9962H582.715L580.234 61.8585H555.125L580.574 2.09277ZM595.172 20.149L588.117 40.3954H602.374L595.172 20.149Z" fill="#76777A"/>
<path d="M637.167 2.09277H664.125L688.066 35.2365H688.31V2.09277H710.888V61.8586H685.049L659.94 28.3741H659.746V61.8586H637.167V2.09277Z" fill="#76777A"/>
<path d="M721.253 2.09277H767.335C787.627 2.09277 798.283 9.92851 798.283 31.9757C798.283 53.0007 787.675 61.8585 767.822 61.8585H721.399L721.253 2.09277ZM744.854 46.7711H758.43C769.233 46.7711 773.563 41.4175 773.563 32.1703C773.563 22.9232 769.233 17.3262 758.43 17.3262H744.854V46.7711Z" fill="#76777A"/>
<path d="M836.336 2.04395H868.599C892.053 2.04395 897.795 15.4767 897.795 32.5596C897.795 45.4569 891.956 61.7611 871.616 61.7611H836.336V2.04395ZM848.891 52.4652H866.555C875.606 52.4652 885.241 49.5451 885.241 32.0728C885.241 12.6052 872.93 11.4371 865.776 11.4371H848.794L848.891 52.4652Z" fill="#76777A"/>
<path d="M907.673 2.09277H959.595V11.4859H920.228V26.5247H957.989V35.9179H920.228V52.5141H960.227V61.8586H907.673V2.09277Z" fill="#76777A"/>
<path d="M969.716 2.09277H982.271V52.0274H1018.62V61.8586H969.716V2.09277Z" fill="#76777A"/>
<path d="M1038.13 2.09277H1025.58V61.9072H1038.13V2.09277Z" fill="#76777A"/>
<path d="M1042.85 2.09277H1056.97L1076.48 49.9833L1095.55 2.09277H1109.08L1082.8 61.8586H1069.52L1042.85 2.09277Z" fill="#76777A"/>
<path d="M1113.9 2.09277H1165.77V11.4859H1126.45V26.5247H1164.21V35.9179H1126.45V52.5141H1166.45V61.8586H1113.9V2.09277Z" fill="#76777A"/>
<path d="M1176.09 2.09277H1213.95C1229.18 2.09277 1234.09 9.00381 1234.09 18.2996C1234.37 21.4778 1233.56 24.6569 1231.79 27.3117C1230.02 29.9664 1227.4 31.9379 1224.36 32.9004C1231.51 34.4091 1233.07 40.5901 1233.07 49.0586C1232.77 53.474 1233.64 57.8909 1235.6 61.8585H1222.02C1220.83 58.9983 1220.31 55.8996 1220.52 52.8061C1220.52 44.289 1219.35 38.2053 1210.15 38.2053H1188.79V61.8099H1176.09V2.09277ZM1210.15 28.8608C1217.11 28.8608 1220.86 26.768 1220.86 20.0517C1220.86 13.3353 1216.77 11.4373 1210.15 11.4373H1188.45V28.8608H1210.15Z" fill="#76777A"/>
<path d="M1301 2.09277L1274.87 39.0814V61.8586H1262.36V39.0814L1236.18 2.09277H1251.56L1268.64 28.7148L1285.72 2.09277H1301Z" fill="#76777A"/>
</g>
</svg>
