<svg width="1078" height="53" viewBox="0 0 1078 53" fill="none" xmlns="http://www.w3.org/2000/svg">
<path d="M18.1038 14.1871H0V1.73315H55.7628V14.1871H37.659V51.2267H18.1038V14.1871Z" fill="white"/>
<path d="M91.4866 0C103.341 0 125.356 0.806083 125.356 26.4798C125.356 52.1536 103.583 52.9597 91.4866 52.9597C79.3906 52.9597 57.6177 52.1133 57.6177 26.4798C57.6177 0.846386 79.5922 0 91.4866 0ZM91.4866 40.3042C99.5506 40.3042 104.51 36.2738 104.51 26.2783C104.51 16.2829 99.5506 12.454 91.4866 12.454C83.4226 12.454 78.4229 16.4844 78.4229 26.4798C78.4229 36.4753 83.4226 40.5057 91.4866 40.5057" fill="white"/>
<path d="M145.354 14.1871H127.25V1.73315H183.013V14.1871H164.91V51.2267H145.354V14.1871Z" fill="white"/>
<path d="M199.464 1.73315H223.656L244.703 51.2267H223.737L221.68 45.5438H201.278L199.182 51.2267H178.376L199.464 1.73315ZM211.56 16.686L205.714 33.4525H217.527L211.56 16.686Z" fill="white"/>
<path d="M247.042 1.73315H266.597V37.9263H296.918V51.2267H247.042V1.73315Z" fill="white"/>
<path d="M330.585 1.73315H374.937C385.098 1.73315 389.614 6.1666 389.614 14.0662C389.726 16.0843 389.218 18.0885 388.159 19.8101C387.099 21.5317 385.539 22.8886 383.687 23.6989C386.149 24.3911 388.313 25.8764 389.844 27.9243C391.375 29.9722 392.187 32.4681 392.154 35.0244C392.154 44.7377 387.315 51.1461 372.8 51.1461H330.585V1.73315ZM349.737 20.1522H364.494C368.526 20.1522 369.373 18.8221 369.373 16.8875C369.373 14.9529 368.446 13.7841 364.494 13.7841H349.737V20.1522ZM349.737 39.1757H366.43C370.462 39.1757 371.51 37.483 371.51 35.1453C371.51 32.8077 370.341 31.1149 366.43 31.1149H349.737V39.1757Z" fill="white"/>
<path d="M399.976 1.733H441.143C445.137 1.44348 449.146 2.04933 452.876 3.50636C454.982 4.73033 456.72 6.49944 457.905 8.62735C459.09 10.7553 459.679 13.1632 459.61 15.5976C459.807 18.0686 459.162 20.5336 457.778 22.5904C456.394 24.6473 454.353 26.1746 451.989 26.9231C453.607 27.441 455.02 28.4562 456.026 29.8241C457.033 31.192 457.581 32.8427 457.594 34.5406L458.44 45.3824C458.66 47.5122 459.501 49.5305 460.86 51.1862H439.49C438.693 48.1359 438.34 44.9867 438.442 41.8357C438.442 38.1277 436.99 35.9512 433.402 35.9512H419.531V51.1862H399.976V1.733ZM419.531 23.4973H433.402C437.434 23.4973 438.804 21.9657 438.804 18.822C438.804 15.6782 436.385 14.187 433.119 14.187H419.531V23.4973Z" fill="white"/>
<path d="M481.06 1.73315H505.051L526.138 51.2267H505.333L503.236 45.5438H482.834L480.778 51.2267H459.973L481.06 1.73315ZM493.156 16.686L487.31 33.4525H499.124L493.156 16.686Z" fill="white"/>
<path d="M527.952 1.73315H550.29L570.127 29.1803H570.329V1.73315H589.037V51.2267H567.627L546.822 23.4974H546.661V51.2267H527.952V1.73315Z" fill="white"/>
<path d="M597.625 1.73315H635.809C652.622 1.73315 661.452 8.22212 661.452 26.4799C661.452 43.8913 652.663 51.2267 636.212 51.2267H597.746L597.625 1.73315ZM617.181 38.7324H628.43C637.381 38.7324 640.97 34.2989 640.97 26.6411C640.97 18.9833 637.381 14.3484 628.43 14.3484H617.181V38.7324Z" fill="white"/>
<path d="M692.983 1.69287H719.715C739.15 1.69287 743.907 12.8168 743.907 26.9636C743.907 37.6442 739.069 51.1461 722.215 51.1461H692.983V1.69287ZM703.386 43.448H718.022C725.521 43.448 733.505 41.0297 733.505 26.5605C733.505 10.4389 723.304 9.47158 717.377 9.47158H703.305L703.386 43.448Z" fill="white"/>
<path d="M752.092 1.73315H795.114V9.51186H762.494V21.9659H793.783V29.7446H762.494V43.4883H795.638V51.2267H752.092V1.73315Z" fill="white"/>
<path d="M803.5 1.73315H813.903V43.0852H844.022V51.2267H803.5V1.73315Z" fill="white"/>
<path d="M860.191 1.73315H849.788V51.267H860.191V1.73315Z" fill="white"/>
<path d="M864.102 1.73315H875.794L891.963 41.3925L907.768 1.73315H918.977L897.204 51.2267H886.197L864.102 1.73315Z" fill="white"/>
<path d="M922.969 1.73315H965.95V9.51186H933.371V21.9659H964.66V29.7446H933.371V43.4883H966.515V51.2267H922.969V1.73315Z" fill="white"/>
<path d="M974.498 1.73315H1005.87C1018.49 1.73315 1022.56 7.45636 1022.56 15.1545C1022.79 17.7864 1022.12 20.4191 1020.65 22.6175C1019.19 24.816 1017.02 26.4487 1014.5 27.2457C1020.42 28.4951 1021.71 33.6138 1021.71 40.6267C1021.46 44.2832 1022.19 47.941 1023.81 51.2267H1012.56C1011.57 48.858 1011.14 46.292 1011.31 43.7301C1011.31 36.6769 1010.34 31.6389 1002.72 31.6389H985.022V51.1864H974.498V1.73315ZM1002.72 23.9005C1008.49 23.9005 1011.59 22.1674 1011.59 16.6054C1011.59 11.0434 1008.21 9.47155 1002.72 9.47155H984.739V23.9005H1002.72Z" fill="white"/>
<path d="M1078 1.73315L1056.35 32.3643V51.2267H1045.99V32.3643L1024.29 1.73315H1037.03L1051.19 23.7795L1065.34 1.73315H1078Z" fill="white"/>
</svg>
