<svg width="1440" height="81" viewBox="0 0 1440 81" fill="none" xmlns="http://www.w3.org/2000/svg">
<g opacity="0.2">
<path d="M-10.2566 21.6821H-38V2.64868H47.4547V21.6821H19.7113V78.2898H-10.2566V21.6821Z" fill="#76777A"/>
<path d="M102.2 0C120.366 0 154.103 1.23194 154.103 40.4692C154.103 79.7065 120.737 80.9384 102.2 80.9384C83.6631 80.9384 50.2969 79.6449 50.2969 40.4692C50.2969 1.29353 83.9721 0 102.2 0ZM102.2 61.597C114.558 61.597 122.158 55.4372 122.158 40.1612C122.158 24.8852 114.558 19.0334 102.2 19.0334C89.8421 19.0334 82.1802 25.1932 82.1802 40.4692C82.1802 55.7452 89.8421 61.9049 102.2 61.9049" fill="#76777A"/>
<path d="M184.751 21.6821H157.007V2.64868H242.462V21.6821H214.718V78.2898H184.751V21.6821Z" fill="#76777A"/>
<path d="M267.672 2.64868H304.745L336.999 78.2897H304.869L301.718 69.6045H270.452L267.239 78.2897H235.356L267.672 2.64868ZM286.209 25.5011L277.249 51.1255H295.353L286.209 25.5011Z" fill="#76777A"/>
<path d="M340.583 2.64868H370.551V57.9628H417.017V78.2898H340.583V2.64868Z" fill="#76777A"/>
<path d="M468.611 2.64868H536.579C552.15 2.64868 559.071 9.42433 559.071 21.4973C559.242 24.5816 558.464 27.6445 556.841 30.2757C555.218 32.9069 552.826 34.9806 549.987 36.219C553.761 37.2769 557.078 39.5469 559.424 42.6767C561.77 45.8065 563.014 49.6209 562.963 53.5278C562.963 68.3726 555.549 78.1666 533.304 78.1666H468.611V2.64868ZM497.961 30.7985H520.576C526.755 30.7985 528.052 28.7658 528.052 25.8091C528.052 22.8525 526.631 21.0662 520.576 21.0662H497.961V30.7985ZM497.961 59.8723H523.542C529.721 59.8723 531.327 57.2852 531.327 53.7126C531.327 50.1399 529.535 47.5529 523.542 47.5529H497.961V59.8723Z" fill="#76777A"/>
<path d="M574.95 2.64873H638.037C644.158 2.20626 650.302 3.13218 656.018 5.35897C659.246 7.22956 661.908 9.93329 663.724 13.1854C665.54 16.4375 666.442 20.1175 666.337 23.8381C666.64 27.6144 665.65 31.3817 663.529 34.5252C661.408 37.6687 658.281 40.0029 654.659 41.1468C657.138 41.9383 659.303 43.4899 660.845 45.5805C662.387 47.671 663.228 50.1937 663.247 52.7887L664.545 69.3583C664.882 72.6133 666.171 75.6977 668.252 78.2282H635.504C634.282 73.5664 633.741 68.7534 633.897 63.9377C633.897 58.2708 631.673 54.9445 626.174 54.9445H604.918V78.2282H574.95V2.64873ZM604.918 35.9111H626.174C632.353 35.9111 634.453 33.5704 634.453 28.7658C634.453 23.9613 630.746 21.6822 625.741 21.6822H604.918V35.9111Z" fill="#76777A"/>
<path d="M699.209 2.64868H735.974L768.289 78.2897H736.406L733.193 69.6045H701.928L698.776 78.2897H666.893L699.209 2.64868ZM717.746 25.5011L708.786 51.1255H726.89L717.746 25.5011Z" fill="#76777A"/>
<path d="M771.07 2.64868H805.301L835.701 44.5962H836.01V2.64868H864.681V78.2898H831.87L799.987 35.911H799.74V78.2898H771.07V2.64868Z" fill="#76777A"/>
<path d="M877.842 2.64868H936.356C962.122 2.64868 975.654 12.5658 975.654 40.4692C975.654 67.0791 962.184 78.2897 936.974 78.2897H878.027L877.842 2.64868ZM907.81 59.1947H925.049C938.766 59.1947 944.265 52.419 944.265 40.7156C944.265 29.0122 938.766 21.9285 925.049 21.9285H907.81V59.1947Z" fill="#76777A"/>
<path d="M1023.97 2.58704H1064.94C1094.72 2.58704 1102.01 19.5878 1102.01 41.2084C1102.01 57.5316 1094.6 78.1665 1068.77 78.1665H1023.97V2.58704ZM1039.92 66.4015H1062.34C1073.84 66.4015 1086.07 62.7057 1086.07 40.5924C1086.07 15.9536 1070.44 14.4753 1061.36 14.4753H1039.79L1039.92 66.4015Z" fill="#76777A"/>
<path d="M1114.56 2.64868H1180.49V14.5369H1130.5V33.5704H1178.45V45.4586H1130.5V66.4631H1181.29V78.2898H1114.56V2.64868Z" fill="#76777A"/>
<path d="M1193.34 2.64868H1209.28V65.8472H1255.44V78.2898H1193.34V2.64868Z" fill="#76777A"/>
<path d="M1280.21 2.64868H1264.27V78.3513H1280.21V2.64868Z" fill="#76777A"/>
<path d="M1286.21 2.64868H1304.13L1328.9 63.2601L1353.13 2.64868H1370.3L1336.94 78.2898H1320.07L1286.21 2.64868Z" fill="#76777A"/>
<path d="M1376.42 2.64868H1442.29V14.5369H1392.36V33.5704H1440.31V45.4586H1392.36V66.4631H1443.15V78.2898H1376.42V2.64868Z" fill="#76777A"/>
</g>
</svg>
